Nunito-Bold.ufo
<glyph name="dollar" format="1">
  <advance width="1152"/>
  <unicode hex="0024"/>
  <outline>
    <contour>
      <point x="510" y="0" type="line" smooth="yes"/>
      <point x="510" y="-45"/>
      <point x="542" y="-67"/>
      <point x="574" y="-67" type="curve" smooth="yes"/>
      <point x="608" y="-67"/>
      <point x="642" y="-44"/>
      <point x="642" y="0" type="curve" smooth="yes"/>
      <point x="642" y="199" type="line"/>
      <point x="838" y="218"/>
      <point x="980" y="320"/>
      <point x="980" y="511" type="curve" smooth="yes"/>
      <point x="980" y="679"/>
      <point x="878" y="759"/>
      <point x="670" y="811" type="curve" smooth="yes"/>
      <point x="516" y="850" type="line"/>
      <point x="407" y="875"/>
      <point x="374" y="897"/>
      <point x="374" y="961" type="curve" smooth="yes"/>
      <point x="374" y="1037"/>
      <point x="468" y="1065"/>
      <point x="559" y="1065" type="curve" smooth="yes"/>
      <point x="669" y="1065"/>
      <point x="767" y="1025"/>
      <point x="812" y="1009" type="curve" smooth="yes"/>
      <point x="826" y="1004"/>
      <point x="839" y="1001"/>
      <point x="851" y="1001" type="curve" smooth="yes"/>
      <point x="898" y="1001"/>
      <point x="926" y="1038"/>
      <point x="926" y="1078" type="curve" smooth="yes"/>
      <point x="926" y="1108"/>
      <point x="909" y="1140"/>
      <point x="872" y="1158" type="curve" smooth="yes"/>
      <point x="817" y="1185"/>
      <point x="738" y="1218"/>
      <point x="629" y="1229" type="curve"/>
      <point x="629" y="1438" type="line" smooth="yes"/>
      <point x="629" y="1482"/>
      <point x="595" y="1505"/>
      <point x="561" y="1505" type="curve" smooth="yes"/>
      <point x="528" y="1505"/>
      <point x="496" y="1483"/>
      <point x="496" y="1438" type="curve" smooth="yes"/>
      <point x="496" y="1231" type="line"/>
      <point x="290" y="1218"/>
      <point x="145" y="1123"/>
      <point x="145" y="949" type="curve" smooth="yes"/>
      <point x="145" y="757"/>
      <point x="264" y="710"/>
      <point x="472" y="654" type="curve"/>
      <point x="628" y="614" type="line" smooth="yes"/>
      <point x="725" y="590"/>
      <point x="767" y="549"/>
      <point x="767" y="495" type="curve" smooth="yes"/>
      <point x="767" y="394"/>
      <point x="659" y="363"/>
      <point x="553" y="363" type="curve" smooth="yes"/>
      <point x="425" y="363"/>
      <point x="336" y="415"/>
      <point x="279" y="447" type="curve" smooth="yes"/>
      <point x="261" y="457"/>
      <point x="243" y="462"/>
      <point x="227" y="462" type="curve" smooth="yes"/>
      <point x="179" y="462"/>
      <point x="147" y="421"/>
      <point x="147" y="379" type="curve" smooth="yes"/>
      <point x="147" y="355"/>
      <point x="158" y="330"/>
      <point x="183" y="312" type="curve" smooth="yes"/>
      <point x="255" y="260"/>
      <point x="363" y="211"/>
      <point x="510" y="199" type="curve"/>
    </contour>
  </outline>
</glyph>
<glyph name="plus" format="1">
  <advance width="1308"/>
  <unicode hex="002B"/>
  <outline>
    <contour>
      <point x="654" y="3" type="curve" smooth="yes"/>
      <point x="719" y="3"/>
      <point x="743" y="62"/>
      <point x="743" y="112" type="curve" smooth="yes"/>
      <point x="743" y="413" type="line"/>
      <point x="1061" y="413" type="line" smooth="yes"/>
      <point x="1118" y="413"/>
      <point x="1169" y="443"/>
      <point x="1169" y="503" type="curve" smooth="yes"/>
      <point x="1169" y="569"/>
      <point x="1110" y="592"/>
      <point x="1061" y="592" type="curve" smooth="yes"/>
      <point x="743" y="592" type="line"/>
      <point x="743" y="895" type="line" smooth="yes"/>
      <point x="743" y="953"/>
      <point x="714" y="1006"/>
      <point x="654" y="1006" type="curve" smooth="yes"/>
      <point x="586" y="1006"/>
      <point x="564" y="945"/>
      <point x="564" y="895" type="curve" smooth="yes"/>
      <point x="564" y="592" type="line"/>
      <point x="247" y="592" type="line" smooth="yes"/>
      <point x="187" y="592"/>
      <point x="140" y="562"/>
      <point x="140" y="503" type="curve" smooth="yes"/>
      <point x="140" y="437"/>
      <point x="196" y="413"/>
      <point x="247" y="413" type="curve" smooth="yes"/>
      <point x="564" y="413" type="line"/>
      <point x="564" y="112" type="line" smooth="yes"/>
      <point x="564" y="48"/>
      <point x="595" y="3"/>
    </contour>
  </outline>
</glyph>
<glyph name="three" format="1">
  <advance width="1231"/>
  <unicode hex="0033"/>
  <outline>
    <contour>
      <point x="590" y="-21" type="curve" smooth="yes"/>
      <point x="873" y="-21"/>
      <point x="1106" y="106"/>
      <point x="1106" y="394" type="curve" smooth="yes"/>
      <point x="1106" y="579"/>
      <point x="1021" y="716"/>
      <point x="845" y="763" type="curve"/>
      <point x="988" y="815"/>
      <point x="1077" y="920"/>
      <point x="1077" y="1086" type="curve" smooth="yes"/>
      <point x="1077" y="1332"/>
      <point x="860" y="1479"/>
      <point x="580" y="1479" type="curve" smooth="yes"/>
      <point x="428" y="1479"/>
      <point x="282" y="1438"/>
      <point x="203" y="1389" type="curve" smooth="yes"/>
      <point x="172" y="1370"/>
      <point x="160" y="1341"/>
      <point x="160" y="1310" type="curve" smooth="yes"/>
      <point x="160" y="1251"/>
      <point x="207" y="1186"/>
      <point x="260" y="1186" type="curve" smooth="yes"/>
      <point x="270" y="1186"/>
      <point x="281" y="1189"/>
      <point x="291" y="1194" type="curve" smooth="yes"/>
      <point x="377" y="1236"/>
      <point x="489" y="1251"/>
      <point x="559" y="1251" type="curve" smooth="yes"/>
      <point x="675" y="1251"/>
      <point x="796" y="1195"/>
      <point x="796" y="1058" type="curve" smooth="yes"/>
      <point x="796" y="914"/>
      <point x="670" y="848"/>
      <point x="517" y="848" type="curve" smooth="yes"/>
      <point x="438" y="848" type="line" smooth="yes"/>
      <point x="379" y="848"/>
      <point x="353" y="797"/>
      <point x="353" y="749" type="curve" smooth="yes"/>
      <point x="353" y="700"/>
      <point x="378" y="651"/>
      <point x="438" y="651" type="curve" smooth="yes"/>
      <point x="522" y="651" type="line" smooth="yes"/>
      <point x="693" y="651"/>
      <point x="822" y="556"/>
      <point x="822" y="407" type="curve" smooth="yes"/>
      <point x="822" y="263"/>
      <point x="716" y="206"/>
      <point x="563" y="206" type="curve" smooth="yes"/>
      <point x="447" y="206"/>
      <point x="357" y="248"/>
      <point x="298" y="274" type="curve" smooth="yes"/>
      <point x="289" y="278"/>
      <point x="281" y="280"/>
      <point x="272" y="280" type="curve" smooth="yes"/>
      <point x="219" y="280"/>
      <point x="169" y="214"/>
      <point x="169" y="152" type="curve" smooth="yes"/>
      <point x="169" y="117"/>
      <point x="185" y="82"/>
      <point x="226" y="62" type="curve" smooth="yes"/>
      <point x="314" y="18"/>
      <point x="429" y="-21"/>
    </contour>
  </outline>
</glyph>
<glyph name="eight" format="1">
  <advance width="1231"/>
  <unicode hex="0038"/>
  <outline>
    <contour>
      <point x="614" y="-23" type="curve" smooth="yes"/>
      <point x="941" y="-23"/>
      <point x="1149" y="141"/>
      <point x="1149" y="394" type="curve" smooth="yes"/>
      <point x="1149" y="578"/>
      <point x="1057" y="704"/>
      <point x="874" y="751" type="curve"/>
      <point x="1026" y="786"/>
      <point x="1122" y="907"/>
      <point x="1122" y="1073" type="curve" smooth="yes"/>
      <point x="1122" y="1330"/>
      <point x="914" y="1477"/>
      <point x="614" y="1477" type="curve" smooth="yes"/>
      <point x="312" y="1477"/>
      <point x="110" y="1326"/>
      <point x="110" y="1073" type="curve" smooth="yes"/>
      <point x="110" y="902"/>
      <point x="205" y="787"/>
      <point x="357" y="751" type="curve"/>
      <point x="177" y="711"/>
      <point x="82" y="569"/>
      <point x="82" y="394" type="curve" smooth="yes"/>
      <point x="82" y="142"/>
      <point x="286" y="-23"/>
    </contour>
    <contour>
      <point x="616" y="187" type="curve" smooth="yes"/>
      <point x="474" y="187"/>
      <point x="364" y="241"/>
      <point x="364" y="405" type="curve" smooth="yes"/>
      <point x="364" y="569"/>
      <point x="475" y="640"/>
      <point x="616" y="640" type="curve" smooth="yes"/>
      <point x="756" y="640"/>
      <point x="866" y="566"/>
      <point x="866" y="405" type="curve" smooth="yes"/>
      <point x="866" y="239"/>
      <point x="753" y="187"/>
    </contour>
    <contour>
      <point x="616" y="865" type="curve" smooth="yes"/>
      <point x="469" y="865"/>
      <point x="379" y="933"/>
      <point x="379" y="1077" type="curve" smooth="yes"/>
      <point x="379" y="1228"/>
      <point x="488" y="1275"/>
      <point x="616" y="1275" type="curve" smooth="yes"/>
      <point x="743" y="1275"/>
      <point x="852" y="1228"/>
      <point x="852" y="1077" type="curve" smooth="yes"/>
      <point x="852" y="933"/>
      <point x="764" y="865"/>
    </contour>
  </outline>
</glyph>
<glyph name="equal" format="1">
  <advance width="1308"/>
  <unicode hex="003D"/>
  <outline>
    <contour>
      <point x="229" y="201" type="curve" smooth="yes"/>
      <point x="1055" y="201" type="line" smooth="yes"/>
      <point x="1113" y="201"/>
      <point x="1168" y="225"/>
      <point x="1168" y="289" type="curve" smooth="yes"/>
      <point x="1168" y="356"/>
      <point x="1113" y="380"/>
      <point x="1067" y="380" type="curve" smooth="yes"/>
      <point x="252" y="380" type="line" smooth="yes"/>
      <point x="193" y="380"/>
      <point x="140" y="354"/>
      <point x="140" y="289" type="curve" smooth="yes"/>
      <point x="140" y="238"/>
      <point x="182" y="201"/>
    </contour>
    <contour>
      <point x="229" y="626" type="curve" smooth="yes"/>
      <point x="1055" y="626" type="line" smooth="yes"/>
      <point x="1114" y="626"/>
      <point x="1168" y="653"/>
      <point x="1168" y="715" type="curve" smooth="yes"/>
      <point x="1168" y="784"/>
      <point x="1109" y="806"/>
      <point x="1055" y="806" type="curve" smooth="yes"/>
      <point x="253" y="806" type="line" smooth="yes"/>
      <point x="193" y="806"/>
      <point x="140" y="780"/>
      <point x="140" y="715" type="curve" smooth="yes"/>
      <point x="140" y="664"/>
      <point x="181" y="626"/>
    </contour>
  </outline>
</glyph>
<glyph name="A" format="1">
  <advance width="1468"/>
  <unicode hex="0041"/>
  <outline>
    <contour>
      <point x="1266" y="19" type="move" name="ogonek"/>
    </contour>
    <contour>
      <point x="733" y="1438" type="move" name="top"/>
    </contour>
    <contour>
      <point x="983" y="525" type="line"/>
      <point x="489" y="525" type="line"/>
      <point x="736" y="1184" type="line"/>
    </contour>
    <contour>
      <point x="1145" y="92" type="line"/>
      <point x="1169" y="23"/>
      <point x="1222" y="-6"/>
      <point x="1275" y="-6" type="curve" smooth="yes"/>
      <point x="1344" y="-6"/>
      <point x="1413" y="45"/>
      <point x="1413" y="121" type="curve" smooth="yes"/>
      <point x="1413" y="137"/>
      <point x="1410" y="154"/>
      <point x="1403" y="172" type="curve" smooth="yes"/>
      <point x="964" y="1271" type="line"/>
      <point x="903" y="1432"/>
      <point x="825" y="1458"/>
      <point x="736" y="1458" type="curve" smooth="yes"/>
      <point x="647" y="1458"/>
      <point x="569" y="1432"/>
      <point x="508" y="1271" type="curve"/>
      <point x="69" y="172" type="line" smooth="yes"/>
      <point x="62" y="154"/>
      <point x="59" y="137"/>
      <point x="59" y="121" type="curve" smooth="yes"/>
      <point x="59" y="45"/>
      <point x="128" y="-6"/>
      <point x="197" y="-6" type="curve" smooth="yes"/>
      <point x="250" y="-6"/>
      <point x="303" y="23"/>
      <point x="327" y="92" type="curve"/>
      <point x="417" y="332" type="line"/>
      <point x="1055" y="332" type="line"/>
    </contour>
  </outline>
</glyph>
<glyph name="D" format="1">
  <advance width="1537"/>
  <unicode hex="0044"/>
  <outline>
    <contour>
      <point x="312" y="750" type="move" name="mid"/>
    </contour>
    <contour>
      <point x="746" y="1438" type="move" name="top"/>
    </contour>
    <contour>
      <point x="454" y="221" type="line"/>
      <point x="454" y="1220" type="line"/>
      <point x="656" y="1220" type="line" smooth="yes"/>
      <point x="983" y="1220"/>
      <point x="1133" y="1090"/>
      <point x="1133" y="720" type="curve" smooth="yes"/>
      <point x="1133" y="372"/>
      <point x="1021" y="221"/>
      <point x="677" y="221" type="curve" smooth="yes"/>
    </contour>
    <contour>
      <point x="311" y="0" type="curve" smooth="yes"/>
      <point x="667" y="0" type="line" smooth="yes"/>
      <point x="1152" y="0"/>
      <point x="1431" y="250"/>
      <point x="1431" y="714" type="curve" smooth="yes"/>
      <point x="1431" y="1184"/>
      <point x="1166" y="1442"/>
      <point x="644" y="1442" type="curve" smooth="yes"/>
      <point x="326" y="1442" type="line" smooth="yes"/>
      <point x="229" y="1442"/>
      <point x="168" y="1378"/>
      <point x="168" y="1273" type="curve" smooth="yes"/>
      <point x="168" y="168" type="line" smooth="yes"/>
      <point x="168" y="79"/>
      <point x="224" y="0"/>
    </contour>
  </outline>
</glyph>
<glyph name="K" format="1">
  <advance width="1358"/>
  <unicode hex="004B"/>
  <outline>
    <contour>
      <point x="682" y="0" type="move" name="bot"/>
    </contour>
    <contour>
      <point x="658" y="1438" type="move" name="top"/>
    </contour>
    <contour>
      <point x="313" y="0" type="curve" smooth="yes"/>
      <point x="386" y="0"/>
      <point x="457" y="56"/>
      <point x="457" y="147" type="curve" smooth="yes"/>
      <point x="457" y="711" type="line"/>
      <point x="991" y="93" type="line" smooth="yes"/>
      <point x="1030" y="44"/>
      <point x="1068" y="0"/>
      <point x="1119" y="1" type="curve" smooth="yes"/>
      <point x="1190" y="1"/>
      <point x="1261" y="59"/>
      <point x="1261" y="133" type="curve" smooth="yes"/>
      <point x="1261" y="166"/>
      <point x="1247" y="205"/>
      <point x="1222" y="239" type="curve"/>
      <point x="753" y="762" type="line"/>
      <point x="1175" y="1219" type="line" smooth="yes"/>
      <point x="1200" y="1249"/>
      <point x="1214" y="1285"/>
      <point x="1214" y="1316" type="curve" smooth="yes"/>
      <point x="1214" y="1387"/>
      <point x="1147" y="1441"/>
      <point x="1080" y="1441" type="curve" smooth="yes"/>
      <point x="1036" y="1441"/>
      <point x="1001" y="1410"/>
      <point x="963" y="1363" type="curve" smooth="yes"/>
      <point x="457" y="788" type="line"/>
      <point x="457" y="1295" type="line" smooth="yes"/>
      <point x="457" y="1387"/>
      <point x="386" y="1443"/>
      <point x="313" y="1443" type="curve" smooth="yes"/>
      <point x="240" y="1443"/>
      <point x="170" y="1387"/>
      <point x="170" y="1295" type="curve" smooth="yes"/>
      <point x="170" y="147" type="line" smooth="yes"/>
      <point x="170" y="55"/>
      <point x="238" y="0"/>
    </contour>
  </outline>
</glyph>
<glyph name="N" format="1">
  <advance width="1568"/>
  <unicode hex="004E"/>
  <outline>
    <contour>
      <point x="820" y="1441" type="move" name="top"/>
    </contour>
    <contour>
      <point x="814" y="0" type="move" name="bot"/>
    </contour>
    <contour>
      <point x="292" y="0" type="curve" smooth="yes"/>
      <point x="357" y="0"/>
      <point x="422" y="48"/>
      <point x="422" y="126" type="curve" smooth="yes"/>
      <point x="422" y="1012" type="line"/>
      <point x="1075" y="108" type="line" smooth="yes"/>
      <point x="1120" y="44"/>
      <point x="1195" y="0"/>
      <point x="1251" y="0" type="curve" smooth="yes"/>
      <point x="1343" y="0"/>
      <point x="1403" y="81"/>
      <point x="1403" y="195" type="curve" smooth="yes"/>
      <point x="1403" y="1316" type="line" smooth="yes"/>
      <point x="1403" y="1395"/>
      <point x="1340" y="1443"/>
      <point x="1275" y="1443" type="curve" smooth="yes"/>
      <point x="1209" y="1443"/>
      <point x="1146" y="1394"/>
      <point x="1146" y="1316" type="curve" smooth="yes"/>
      <point x="1146" y="430" type="line"/>
      <point x="488" y="1341" type="line"/>
      <point x="445" y="1405"/>
      <point x="373" y="1442"/>
      <point x="315" y="1442" type="curve" smooth="yes"/>
      <point x="234" y="1442"/>
      <point x="164" y="1379"/>
      <point x="164" y="1269" type="curve" smooth="yes"/>
      <point x="164" y="126" type="line" smooth="yes"/>
      <point x="164" y="47"/>
      <point x="228" y="0"/>
    </contour>
  </outline>
</glyph>
<glyph name="O" format="1">
  <advance width="1610"/>
  <unicode hex="004F"/>
  <outline>
    <contour>
      <point x="807" y="1441" type="move" name="top"/>
    </contour>
    <contour>
      <point x="805" y="200" type="curve" smooth="yes"/>
      <point x="530" y="200"/>
      <point x="406" y="396"/>
      <point x="406" y="728" type="curve" smooth="yes"/>
      <point x="406" y="1057"/>
      <point x="530" y="1256"/>
      <point x="805" y="1256" type="curve" smooth="yes"/>
      <point x="1081" y="1256"/>
      <point x="1204" y="1057"/>
      <point x="1204" y="728" type="curve" smooth="yes"/>
      <point x="1204" y="396"/>
      <point x="1079" y="200"/>
    </contour>
    <contour>
      <point x="805" y="-26" type="curve" smooth="yes"/>
      <point x="1260" y="-26"/>
      <point x="1506" y="265"/>
      <point x="1506" y="728" type="curve" smooth="yes"/>
      <point x="1506" y="1191"/>
      <point x="1260" y="1483"/>
      <point x="805" y="1483" type="curve" smooth="yes"/>
      <point x="353" y="1483"/>
      <point x="104" y="1191"/>
      <point x="104" y="728" type="curve" smooth="yes"/>
      <point x="104" y="265"/>
      <point x="353" y="-26"/>
    </contour>
  </outline>
</glyph>
<glyph name="S" format="1">
  <advance width="1320"/>
  <unicode hex="0053"/>
  <outline>
    <contour>
      <point x="658" y="0" type="move" name="bot"/>
    </contour>
    <contour>
      <point x="667" y="1438" type="move" name="top"/>
    </contour>
    <contour>
      <point x="658" y="-26" type="curve" smooth="yes"/>
      <point x="1006" y="-26"/>
      <point x="1231" y="140"/>
      <point x="1231" y="411" type="curve" smooth="yes"/>
      <point x="1231" y="649"/>
      <point x="1083" y="749"/>
      <point x="833" y="829" type="curve" smooth="yes"/>
      <point x="823" y="833"/>
      <point x="551" y="911"/>
      <point x="541" y="915" type="curve" smooth="yes"/>
      <point x="444" y="947"/>
      <point x="393" y="995"/>
      <point x="393" y="1082" type="curve" smooth="yes"/>
      <point x="393" y="1217"/>
      <point x="535" y="1256"/>
      <point x="690" y="1256" type="curve" smooth="yes"/>
      <point x="832" y="1256"/>
      <point x="952" y="1213"/>
      <point x="1038" y="1164" type="curve" smooth="yes"/>
      <point x="1148" y="1102"/>
      <point x="1237" y="1269"/>
      <point x="1157" y="1340" type="curve" smooth="yes"/>
      <point x="1062" y="1422"/>
      <point x="865" y="1483"/>
      <point x="672" y="1483" type="curve" smooth="yes"/>
      <point x="352" y="1483"/>
      <point x="118" y="1328"/>
      <point x="118" y="1068" type="curve" smooth="yes"/>
      <point x="118" y="866"/>
      <point x="217" y="765"/>
      <point x="440" y="688" type="curve" smooth="yes"/>
      <point x="770" y="578" type="line" smooth="yes"/>
      <point x="887" y="540"/>
      <point x="951" y="492"/>
      <point x="951" y="386" type="curve" smooth="yes"/>
      <point x="951" y="257"/>
      <point x="821" y="200"/>
      <point x="657" y="200" type="curve" smooth="yes"/>
      <point x="485" y="200"/>
      <point x="352" y="260"/>
      <point x="265" y="312" type="curve" smooth="yes"/>
      <point x="173" y="368"/>
      <point x="69" y="178"/>
      <point x="139" y="124" type="curve" smooth="yes"/>
      <point x="238" y="47"/>
      <point x="403" y="-26"/>
    </contour>
  </outline>
</glyph>
<glyph name="X" format="1">
  <advance width="1332"/>
  <unicode hex="0058"/>
  <outline>
    <contour>
      <point x="1019" y="51" type="line"/>
      <point x="1127" y="-103"/>
      <point x="1351" y="51"/>
      <point x="1241" y="201" type="curve" smooth="yes"/>
      <point x="840.691" y="728.801" type="line"/>
      <point x="1255" y="1259" type="line" smooth="yes"/>
      <point x="1351" y="1385"/>
      <point x="1169" y="1546"/>
      <point x="1046" y="1377" type="curve"/>
      <point x="692.838" y="923.744" type="line"/>
      <point x="343" y="1385" type="line"/>
      <point x="228" y="1545"/>
      <point x="18" y="1377"/>
      <point x="122" y="1231" type="curve"/>
      <point x="510.312" y="720.177" type="line"/>
      <point x="97" y="209" type="line"/>
      <point x="-23" y="51"/>
      <point x="185" y="-90"/>
      <point x="296" y="60" type="curve"/>
      <point x="658.385" y="525.388" type="line"/>
    </contour>
  </outline>
</glyph>
<glyph name="Y" format="1">
  <advance width="1307"/>
  <unicode hex="0059"/>
  <outline>
    <contour>
      <point x="664" y="1438" type="move" name="top"/>
    </contour>
    <contour>
      <point x="506" y="146" type="line" smooth="yes"/>
      <point x="506" y="-49"/>
      <point x="793" y="-49"/>
      <point x="793" y="146" type="curve" smooth="yes"/>
      <point x="793" y="583" type="line"/>
      <point x="1216" y="1257" type="line"/>
      <point x="1306" y="1408"/>
      <point x="1090" y="1517"/>
      <point x="1007" y="1369" type="curve"/>
      <point x="664" y="804" type="line"/>
      <point x="334" y="1354" type="line"/>
      <point x="232" y="1538"/>
      <point x="0" y="1388"/>
      <point x="89" y="1233" type="curve"/>
      <point x="506" y="574" type="line"/>
    </contour>
  </outline>
</glyph>
<glyph name="backslash" format="1">
  <advance width="635"/>
  <unicode hex="005C"/>
  <outline>
    <contour>
      <point x="553" y="-83" type="curve" smooth="yes"/>
      <point x="597" y="-83"/>
      <point x="642" y="-52"/>
      <point x="642" y="1" type="curve" smooth="yes"/>
      <point x="642" y="13"/>
      <point x="639" y="26"/>
      <point x="635" y="42" type="curve"/>
      <point x="170" y="1424" type="line" smooth="yes"/>
      <point x="154" y="1472"/>
      <point x="121" y="1503"/>
      <point x="81" y="1503" type="curve" smooth="yes"/>
      <point x="35" y="1503"/>
      <point x="-9" y="1473"/>
      <point x="-9" y="1419" type="curve" smooth="yes"/>
      <point x="-9" y="1409"/>
      <point x="-7" y="1397"/>
      <point x="-3" y="1384" type="curve" smooth="yes"/>
      <point x="467" y="-6" type="line" smooth="yes"/>
      <point x="483" y="-54"/>
      <point x="514" y="-83"/>
    </contour>
  </outline>
</glyph>
<glyph name="grave" format="1">
  <advance width="569"/>
  <unicode hex="0060"/>
  <outline>
    <contour>
      <point x="446" y="1040" type="move" name="_top"/>
    </contour>
    <contour>
      <point x="451" y="1196" type="curve" smooth="yes"/>
      <point x="482" y="1196"/>
      <point x="505" y="1224"/>
      <point x="505" y="1256" type="curve" smooth="yes"/>
      <point x="505" y="1270"/>
      <point x="496" y="1285"/>
      <point x="486" y="1300" type="curve"/>
      <point x="263" y="1587" type="line"/>
      <point x="237" y="1625"/>
      <point x="208" y="1649"/>
      <point x="174" y="1649" type="curve" smooth="yes"/>
      <point x="116" y="1649"/>
      <point x="55" y="1594"/>
      <point x="55" y="1535" type="curve" smooth="yes"/>
      <point x="55" y="1512"/>
      <point x="64" y="1492"/>
      <point x="84" y="1475" type="curve" smooth="yes"/>
      <point x="389" y="1224" type="line"/>
      <point x="407" y="1207"/>
      <point x="433" y="1196"/>
    </contour>
  </outline>
</glyph>
<glyph name="a" format="1">
  <advance width="1078"/>
  <unicode hex="0061"/>
  <outline>
    <contour>
      <point x="560" y="1001" type="move" name="top"/>
    </contour>
    <contour>
      <point x="808" y="29" type="move" name="ogonek"/>
    </contour>
    <contour>
      <point x="417" y="-12" type="curve" smooth="yes"/>
      <point x="582" y="-12"/>
      <point x="670" y="68"/>
      <point x="708" y="159" type="curve"/>
      <point x="708" y="126" type="line" smooth="yes"/>
      <point x="708" y="42"/>
      <point x="768" y="0"/>
      <point x="828" y="-0" type="curve" smooth="yes"/>
      <point x="888" y="0"/>
      <point x="947" y="42"/>
      <point x="947" y="126" type="curve" smooth="yes"/>
      <point x="947" y="634" type="line" smooth="yes"/>
      <point x="947" y="913"/>
      <point x="773" y="1016"/>
      <point x="536" y="1016" type="curve" smooth="yes"/>
      <point x="374" y="1016"/>
      <point x="250" y="977"/>
      <point x="167" y="938" type="curve" smooth="yes"/>
      <point x="136" y="923"/>
      <point x="123" y="896"/>
      <point x="123" y="868" type="curve" smooth="yes"/>
      <point x="123" y="821"/>
      <point x="159" y="772"/>
      <point x="207" y="772" type="curve" smooth="yes"/>
      <point x="216" y="772"/>
      <point x="226" y="773"/>
      <point x="235" y="777" type="curve" smooth="yes"/>
      <point x="298" y="801"/>
      <point x="405" y="846"/>
      <point x="524" y="846" type="curve" smooth="yes"/>
      <point x="638" y="846"/>
      <point x="701" y="793"/>
      <point x="701" y="665" type="curve" smooth="yes"/>
      <point x="701" y="588" type="line"/>
      <point x="262" y="588"/>
      <point x="70" y="554"/>
      <point x="70" y="275" type="curve" smooth="yes"/>
      <point x="70" y="89"/>
      <point x="222" y="-11"/>
    </contour>
    <contour>
      <point x="448" y="146" type="curve" smooth="yes"/>
      <point x="363" y="146"/>
      <point x="300" y="192"/>
      <point x="300" y="289" type="curve" smooth="yes"/>
      <point x="300" y="440"/>
      <point x="399" y="454"/>
      <point x="700" y="454" type="curve"/>
      <point x="700" y="425" type="line" smooth="yes"/>
      <point x="700" y="257"/>
      <point x="572" y="146"/>
    </contour>
  </outline>
</glyph>
<glyph name="e" format="1">
  <advance width="1099"/>
  <unicode hex="0065"/>
  <outline>
    <contour>
      <point x="782" y="43" type="move" name="ogonek"/>
    </contour>
    <contour>
      <point x="578" y="1001" type="move" name="top"/>
    </contour>
    <contour>
      <point x="80" y="511" type="curve" smooth="yes"/>
      <point x="80" y="175"/>
      <point x="293" y="-12"/>
      <point x="602" y="-12" type="curve" smooth="yes"/>
      <point x="767" y="-12"/>
      <point x="882" y="46"/>
      <point x="971" y="121" type="curve" smooth="yes"/>
      <point x="994" y="141"/>
      <point x="1003" y="165"/>
      <point x="1003" y="189" type="curve" smooth="yes"/>
      <point x="1003" y="236"/>
      <point x="966" y="280"/>
      <point x="924" y="280" type="curve" smooth="yes"/>
      <point x="911" y="280"/>
      <point x="898" y="276"/>
      <point x="885" y="266" type="curve" smooth="yes"/>
      <point x="814" y="215"/>
      <point x="722" y="165"/>
      <point x="620" y="165" type="curve" smooth="yes"/>
      <point x="449" y="165"/>
      <point x="342" y="249"/>
      <point x="331" y="447" type="curve"/>
      <point x="963" y="447" type="line" smooth="yes"/>
      <point x="1014" y="447"/>
      <point x="1035" y="485"/>
      <point x="1035" y="534" type="curve" smooth="yes"/>
      <point x="1032" y="791"/>
      <point x="893" y="1016"/>
      <point x="574" y="1016" type="curve" smooth="yes"/>
      <point x="262" y="1016"/>
      <point x="80" y="783"/>
    </contour>
    <contour>
      <point x="333" y="588" type="line"/>
      <point x="344" y="719"/>
      <point x="421" y="851"/>
      <point x="581" y="851" type="curve" smooth="yes"/>
      <point x="746" y="851"/>
      <point x="811" y="726"/>
      <point x="821" y="588" type="curve"/>
    </contour>
  </outline>
</glyph>
<glyph name="g" format="1">
  <advance width="1218"/>
  <unicode hex="0067"/>
  <outline>
    <contour>
      <point x="589" y="999" type="move" name="top"/>
    </contour>
    <contour>
      <point x="852" y="13" type="line" smooth="yes"/>
      <point x="852" y="-182"/>
      <point x="736" y="-268"/>
      <point x="556" y="-268" type="curve" smooth="yes"/>
      <point x="442" y="-268"/>
      <point x="366" y="-232"/>
      <point x="292" y="-208" type="curve" smooth="yes"/>
      <point x="281" y="-204"/>
      <point x="270" y="-202"/>
      <point x="260" y="-202" type="curve" smooth="yes"/>
      <point x="212" y="-202"/>
      <point x="179" y="-244"/>
      <point x="179" y="-288" type="curve" smooth="yes"/>
      <point x="179" y="-316"/>
      <point x="192" y="-344"/>
      <point x="225" y="-364" type="curve" smooth="yes"/>
      <point x="293" y="-406"/>
      <point x="432" y="-442"/>
      <point x="581" y="-442" type="curve" smooth="yes"/>
      <point x="886" y="-442"/>
      <point x="1092" y="-281"/>
      <point x="1092" y="43" type="curve" smooth="yes"/>
      <point x="1092" y="863" type="line" smooth="yes"/>
      <point x="1092" y="954"/>
      <point x="1040" y="1003"/>
      <point x="973" y="1003" type="curve" smooth="yes"/>
      <point x="914" y="1003"/>
      <point x="864" y="967"/>
      <point x="857" y="897" type="curve"/>
      <point x="857" y="851" type="line"/>
      <point x="798" y="945"/>
      <point x="722" y="1015"/>
      <point x="548" y="1015" type="curve" smooth="yes"/>
      <point x="254" y="1015"/>
      <point x="78" y="797"/>
      <point x="78" y="495" type="curve" smooth="yes"/>
      <point x="78" y="187"/>
      <point x="269" y="-1"/>
      <point x="554" y="-1" type="curve" smooth="yes"/>
      <point x="686" y="-1"/>
      <point x="793" y="48"/>
      <point x="852" y="160" type="curve"/>
    </contour>
    <contour>
      <point x="599" y="166" type="curve"/>
      <point x="458" y="168"/>
      <point x="334" y="269"/>
      <point x="334" y="502" type="curve" smooth="yes"/>
      <point x="334" y="685"/>
      <point x="405" y="847"/>
      <point x="598" y="847" type="curve" smooth="yes"/>
      <point x="788" y="847"/>
      <point x="852" y="704"/>
      <point x="852" y="500" type="curve" smooth="yes"/>
      <point x="852" y="259"/>
      <point x="740" y="169"/>
    </contour>
  </outline>
</glyph>
<glyph name="o" format="1">
  <advance width="1209"/>
  <unicode hex="006F"/>
  <outline>
    <contour>
      <point x="603" y="991" type="move" name="top"/>
    </contour>
    <contour>
      <point x="604" y="-12" type="curve" smooth="yes"/>
      <point x="968" y="-12"/>
      <point x="1129" y="244"/>
      <point x="1129" y="501" type="curve" smooth="yes"/>
      <point x="1129" y="776"/>
      <point x="956" y="1017"/>
      <point x="604" y="1017" type="curve" smooth="yes"/>
      <point x="243" y="1017"/>
      <point x="80" y="764"/>
      <point x="80" y="501" type="curve" smooth="yes"/>
      <point x="80" y="239"/>
      <point x="242" y="-12"/>
    </contour>
    <contour>
      <point x="604" y="159" type="curve" smooth="yes"/>
      <point x="431" y="159"/>
      <point x="331" y="286"/>
      <point x="331" y="501" type="curve" smooth="yes"/>
      <point x="331" y="719"/>
      <point x="430" y="846"/>
      <point x="604" y="846" type="curve" smooth="yes"/>
      <point x="777" y="846"/>
      <point x="878" y="719"/>
      <point x="878" y="501" type="curve" smooth="yes"/>
      <point x="878" y="285"/>
      <point x="777" y="159"/>
    </contour>
  </outline>
</glyph>
<glyph name="s" format="1">
  <advance width="1001"/>
  <unicode hex="0073"/>
  <outline>
    <contour>
      <point x="509" y="1004" type="move" name="top"/>
    </contour>
    <contour>
      <point x="506" y="0" type="move" name="bot"/>
    </contour>
    <contour>
      <point x="134" y="101" type="curve" smooth="yes"/>
      <point x="215" y="42"/>
      <point x="348" y="-15"/>
      <point x="526" y="-15" type="curve" smooth="yes"/>
      <point x="755" y="-15"/>
      <point x="931" y="88"/>
      <point x="931" y="300" type="curve" smooth="yes"/>
      <point x="931" y="468"/>
      <point x="829" y="548"/>
      <point x="621" y="600" type="curve" smooth="yes"/>
      <point x="467" y="639" type="line"/>
      <point x="358" y="664"/>
      <point x="325" y="686"/>
      <point x="325" y="750" type="curve" smooth="yes"/>
      <point x="325" y="826"/>
      <point x="419" y="854"/>
      <point x="510" y="854" type="curve" smooth="yes"/>
      <point x="620" y="854"/>
      <point x="718" y="814"/>
      <point x="763" y="798" type="curve" smooth="yes"/>
      <point x="777" y="793"/>
      <point x="790" y="790"/>
      <point x="802" y="790" type="curve" smooth="yes"/>
      <point x="849" y="790"/>
      <point x="877" y="827"/>
      <point x="877" y="867" type="curve" smooth="yes"/>
      <point x="877" y="897"/>
      <point x="860" y="929"/>
      <point x="823" y="947" type="curve" smooth="yes"/>
      <point x="755" y="980"/>
      <point x="642" y="1022"/>
      <point x="495" y="1022" type="curve" smooth="yes"/>
      <point x="264" y="1022"/>
      <point x="96" y="926"/>
      <point x="96" y="738" type="curve" smooth="yes"/>
      <point x="96" y="546"/>
      <point x="215" y="499"/>
      <point x="423" y="443" type="curve"/>
      <point x="579" y="403" type="line" smooth="yes"/>
      <point x="676" y="379"/>
      <point x="718" y="338"/>
      <point x="718" y="284" type="curve" smooth="yes"/>
      <point x="718" y="183"/>
      <point x="610" y="152"/>
      <point x="504" y="152" type="curve" smooth="yes"/>
      <point x="376" y="152"/>
      <point x="287" y="204"/>
      <point x="230" y="236" type="curve" smooth="yes"/>
      <point x="212" y="246"/>
      <point x="194" y="251"/>
      <point x="178" y="251" type="curve" smooth="yes"/>
      <point x="130" y="251"/>
      <point x="98" y="210"/>
      <point x="98" y="168" type="curve" smooth="yes"/>
      <point x="98" y="144"/>
      <point x="109" y="119"/>
    </contour>
  </outline>
</glyph>
<glyph name="y" format="1">
  <advance width="1082"/>
  <unicode hex="0079"/>
  <outline>
    <contour>
      <point x="577" y="1030" type="move" name="top"/>
    </contour>
    <contour>
      <point x="441" y="-356" type="curve" smooth="yes"/>
      <point x="1038" y="839" type="line" smooth="yes"/>
      <point x="1048" y="859"/>
      <point x="1052" y="879"/>
      <point x="1052" y="897" type="curve" smooth="yes"/>
      <point x="1052" y="962"/>
      <point x="996" y="1009"/>
      <point x="937" y="1009" type="curve" smooth="yes"/>
      <point x="896" y="1009"/>
      <point x="853" y="986"/>
      <point x="826" y="931" type="curve" smooth="yes"/>
      <point x="559" y="398" type="line"/>
      <point x="293" y="922" type="line" smooth="yes"/>
      <point x="267" y="973"/>
      <point x="226" y="994"/>
      <point x="185" y="994" type="curve" smooth="yes"/>
      <point x="123" y="994"/>
      <point x="63" y="946"/>
      <point x="63" y="881" type="curve" smooth="yes"/>
      <point x="63" y="863"/>
      <point x="67" y="844"/>
      <point x="77" y="825" type="curve" smooth="yes"/>
      <point x="434" y="147" type="line"/>
      <point x="234" y="-252" type="line" smooth="yes"/>
      <point x="225" y="-270"/>
      <point x="221" y="-289"/>
      <point x="221" y="-306" type="curve" smooth="yes"/>
      <point x="221" y="-373"/>
      <point x="281" y="-424"/>
      <point x="342" y="-424" type="curve" smooth="yes"/>
      <point x="380" y="-424"/>
      <point x="417" y="-404"/>
    </contour>
  </outline>
</glyph>
<glyph name="yen" format="1">
  <advance width="1274"/>
  <unicode hex="00A5"/>
  <outline>
    <component base="Y"/>
    <contour>
      <point x="216" y="293" type="curve" smooth="yes"/>
      <point x="1116" y="293" type="line" smooth="yes"/>
      <point x="1159" y="293"/>
      <point x="1179" y="330"/>
      <point x="1179" y="364" type="curve" smooth="yes"/>
      <point x="1179" y="395"/>
      <point x="1158" y="434"/>
      <point x="1116" y="434" type="curve" smooth="yes"/>
      <point x="216" y="434" type="line" smooth="yes"/>
      <point x="173" y="434"/>
      <point x="153" y="396"/>
      <point x="153" y="365" type="curve" smooth="yes"/>
      <point x="153" y="331"/>
      <point x="173" y="293"/>
    </contour>
    <contour>
      <point x="216" y="535" type="curve" smooth="yes"/>
      <point x="1116" y="535" type="line" smooth="yes"/>
      <point x="1159" y="535"/>
      <point x="1179" y="571"/>
      <point x="1179" y="605" type="curve" smooth="yes"/>
      <point x="1179" y="637"/>
      <point x="1158" y="676"/>
      <point x="1116" y="676" type="curve" smooth="yes"/>
      <point x="216" y="676" type="line" smooth="yes"/>
      <point x="173" y="676"/>
      <point x="153" y="637"/>
      <point x="153" y="606" type="curve" smooth="yes"/>
      <point x="153" y="573"/>
      <point x="173" y="535"/>
    </contour>
  </outline>
</glyph>
<glyph name="threesuperior" format="1">
  <advance width="825"/>
  <unicode hex="00B3"/>
  <outline>
    <contour>
      <point x="408" y="569" type="curve" smooth="yes"/>
      <point x="575" y="569"/>
      <point x="696" y="655"/>
      <point x="696" y="799" type="curve" smooth="yes"/>
      <point x="696" y="910"/>
      <point x="638" y="987"/>
      <point x="533" y="1014" type="curve"/>
      <point x="624" y="1046"/>
      <point x="678" y="1103"/>
      <point x="678" y="1201" type="curve" smooth="yes"/>
      <point x="678" y="1352"/>
      <point x="565" y="1437"/>
      <point x="412" y="1437" type="curve" smooth="yes"/>
      <point x="321" y="1437"/>
      <point x="157" y="1405"/>
      <point x="157" y="1339" type="curve" smooth="yes"/>
      <point x="157" y="1309"/>
      <point x="179" y="1282"/>
      <point x="214" y="1282" type="curve" smooth="yes"/>
      <point x="233" y="1282"/>
      <point x="314" y="1319"/>
      <point x="402" y="1319" type="curve" smooth="yes"/>
      <point x="480" y="1319"/>
      <point x="545" y="1276"/>
      <point x="545" y="1198" type="curve" smooth="yes"/>
      <point x="545" y="1114"/>
      <point x="474" y="1065"/>
      <point x="384" y="1065" type="curve" smooth="yes"/>
      <point x="339" y="1065" type="line" smooth="yes"/>
      <point x="304" y="1065"/>
      <point x="288" y="1035"/>
      <point x="288" y="1007" type="curve" smooth="yes"/>
      <point x="288" y="979"/>
      <point x="306" y="950"/>
      <point x="342" y="950" type="curve" smooth="yes"/>
      <point x="388" y="950" type="line" smooth="yes"/>
      <point x="488" y="950"/>
      <point x="558" y="893"/>
      <point x="558" y="808" type="curve" smooth="yes"/>
      <point x="558" y="727"/>
      <point x="496" y="688"/>
      <point x="407" y="688" type="curve" smooth="yes"/>
      <point x="318" y="688"/>
      <point x="252" y="728"/>
      <point x="221" y="728" type="curve" smooth="yes"/>
      <point x="183" y="728"/>
      <point x="162" y="698"/>
      <point x="162" y="669" type="curve" smooth="yes"/>
      <point x="162" y="603"/>
      <point x="325" y="569"/>
    </contour>
  </outline>
</glyph>
<glyph name="guillemotright" format="1">
  <advance width="1206"/>
  <unicode hex="00BB"/>
  <outline>
    <contour>
      <point x="267" y="44" type="curve" smooth="yes"/>
      <point x="308" y="44"/>
      <point x="343" y="72"/>
      <point x="377" y="131" type="curve" smooth="yes"/>
      <point x="607" y="534" type="line"/>
      <point x="377" y="936" type="line" smooth="yes"/>
      <point x="343" y="994"/>
      <point x="307" y="1023"/>
      <point x="266" y="1023" type="curve" smooth="yes"/>
      <point x="215" y="1023"/>
      <point x="174" y="988"/>
      <point x="174" y="937" type="curve" smooth="yes"/>
      <point x="174" y="918"/>
      <point x="181" y="901"/>
      <point x="189" y="883" type="curve" smooth="yes"/>
      <point x="349" y="534" type="line"/>
      <point x="189" y="185" type="line" smooth="yes"/>
      <point x="181" y="166"/>
      <point x="174" y="147"/>
      <point x="174" y="130" type="curve" smooth="yes"/>
      <point x="174" y="75"/>
      <point x="219" y="44"/>
    </contour>
    <contour>
      <point x="723" y="44" type="curve" smooth="yes"/>
      <point x="765" y="44"/>
      <point x="798" y="72"/>
      <point x="832" y="131" type="curve" smooth="yes"/>
      <point x="1062" y="534" type="line"/>
      <point x="832" y="936" type="line" smooth="yes"/>
      <point x="798" y="994"/>
      <point x="763" y="1023"/>
      <point x="721" y="1023" type="curve" smooth="yes"/>
      <point x="672" y="1023"/>
      <point x="629" y="988"/>
      <point x="629" y="938" type="curve" smooth="yes"/>
      <point x="629" y="920"/>
      <point x="637" y="901"/>
      <point x="645" y="882" type="curve" smooth="yes"/>
      <point x="805" y="534" type="line"/>
      <point x="645" y="186" type="line" smooth="yes"/>
      <point x="637" y="167"/>
      <point x="630" y="147"/>
      <point x="630" y="130" type="curve" smooth="yes"/>
      <point x="630" y="77"/>
      <point x="673" y="44"/>
    </contour>
  </outline>
</glyph>
<glyph name="threequarters" format="1">
  <advance width="1749"/>
  <unicode hex="00BE"/>
  <outline>
    <contour>
      <point x="1095" y="277" type="line"/>
      <point x="1360" y="709" type="line"/>
      <point x="1360" y="277" type="line"/>
    </contour>
    <contour>
      <point x="630" y="-72" type="curve" smooth="yes"/>
      <point x="660" y="-72"/>
      <point x="690" y="-57"/>
      <point x="702" y="-17" type="curve" smooth="yes"/>
      <point x="1164" y="1326" type="line" smooth="yes"/>
      <point x="1169" y="1344"/>
      <point x="1174" y="1365"/>
      <point x="1174" y="1379" type="curve" smooth="yes"/>
      <point x="1174" y="1429"/>
      <point x="1136" y="1457"/>
      <point x="1094" y="1457" type="curve" smooth="yes"/>
      <point x="1060" y="1457"/>
      <point x="1030" y="1428"/>
      <point x="1016" y="1385" type="curve" smooth="yes"/>
      <point x="559" y="50" type="line" smooth="yes"/>
      <point x="555" y="34"/>
      <point x="551" y="17"/>
      <point x="551" y="4" type="curve" smooth="yes"/>
      <point x="551" y="-42"/>
      <point x="590" y="-72"/>
    </contour>
    <contour>
      <point x="1428" y="1" type="curve" smooth="yes"/>
      <point x="1465" y="1"/>
      <point x="1494" y="33"/>
      <point x="1494" y="83" type="curve" smooth="yes"/>
      <point x="1494" y="181" type="line"/>
      <point x="1560" y="181" type="line" smooth="yes"/>
      <point x="1598" y="181"/>
      <point x="1617" y="202"/>
      <point x="1617" y="230" type="curve" smooth="yes"/>
      <point x="1617" y="258"/>
      <point x="1597" y="280"/>
      <point x="1558" y="280" type="curve" smooth="yes"/>
      <point x="1494" y="280" type="line"/>
      <point x="1494" y="705" type="line" smooth="yes"/>
      <point x="1494" y="793"/>
      <point x="1458" y="837"/>
      <point x="1397" y="837" type="curve" smooth="yes"/>
      <point x="1344" y="837"/>
      <point x="1303" y="816"/>
      <point x="1266" y="745" type="curve"/>
      <point x="974" y="285" type="line" smooth="yes"/>
      <point x="965" y="271"/>
      <point x="961" y="256"/>
      <point x="961" y="241" type="curve" smooth="yes"/>
      <point x="961" y="200"/>
      <point x="993" y="181"/>
      <point x="1042" y="181" type="curve" smooth="yes"/>
      <point x="1360" y="181" type="line"/>
      <point x="1360" y="87" type="line" smooth="yes"/>
      <point x="1360" y="32"/>
      <point x="1390" y="1"/>
    </contour>
    <contour>
      <point x="326" y="574" type="curve" smooth="yes"/>
      <point x="493" y="574"/>
      <point x="614" y="661"/>
      <point x="614" y="804" type="curve" smooth="yes"/>
      <point x="614" y="916"/>
      <point x="548" y="996"/>
      <point x="442" y="1019" type="curve"/>
      <point x="460" y="1093"/>
      <point x="596" y="1109"/>
      <point x="596" y="1207" type="curve" smooth="yes"/>
      <point x="596" y="1356"/>
      <point x="475" y="1442"/>
      <point x="322" y="1442" type="curve" smooth="yes"/>
      <point x="230" y="1442"/>
      <point x="75" y="1411"/>
      <point x="75" y="1343" type="curve" smooth="yes"/>
      <point x="75" y="1314"/>
      <point x="98" y="1288"/>
      <point x="132" y="1288" type="curve" smooth="yes"/>
      <point x="150" y="1288"/>
      <point x="241" y="1320"/>
      <point x="317" y="1320" type="curve" smooth="yes"/>
      <point x="395" y="1320"/>
      <point x="463" y="1279"/>
      <point x="463" y="1204" type="curve" smooth="yes"/>
      <point x="463" y="1118"/>
      <point x="392" y="1072"/>
      <point x="302" y="1071" type="curve" smooth="yes"/>
      <point x="259" y="1070" type="line" smooth="yes"/>
      <point x="224" y="1069"/>
      <point x="207" y="1045"/>
      <point x="207" y="1014" type="curve" smooth="yes"/>
      <point x="207" y="985"/>
      <point x="223" y="959"/>
      <point x="259" y="959" type="curve" smooth="yes"/>
      <point x="305" y="959" type="line" smooth="yes"/>
      <point x="406" y="959"/>
      <point x="476" y="898"/>
      <point x="476" y="813" type="curve" smooth="yes"/>
      <point x="476" y="731"/>
      <point x="415" y="694"/>
      <point x="324" y="694" type="curve" smooth="yes"/>
      <point x="246" y="694"/>
      <point x="170" y="731"/>
      <point x="140" y="731" type="curve" smooth="yes"/>
      <point x="101" y="731"/>
      <point x="81" y="703"/>
      <point x="81" y="675" type="curve" smooth="yes"/>
      <point x="81" y="609"/>
      <point x="242" y="574"/>
    </contour>
  </outline>
</glyph>
<glyph name="ae" format="1">
  <advance width="1742"/>
  <unicode hex="00E6"/>
  <outline>
    <contour>
      <point x="874" y="1009" type="move" name="top"/>
    </contour>
    <contour>
      <point x="428" y="-23" type="curve" smooth="yes"/>
      <point x="600" y="-23"/>
      <point x="754" y="36"/>
      <point x="829" y="173" type="curve"/>
      <point x="902" y="53"/>
      <point x="1021" y="-23"/>
      <point x="1185" y="-23" type="curve" smooth="yes"/>
      <point x="1364" y="-23"/>
      <point x="1604" y="42"/>
      <point x="1604" y="167" type="curve" smooth="yes"/>
      <point x="1604" y="206"/>
      <point x="1579" y="243"/>
      <point x="1542" y="243" type="curve" smooth="yes"/>
      <point x="1531" y="243"/>
      <point x="1521" y="241"/>
      <point x="1509" y="235" type="curve" smooth="yes"/>
      <point x="1433" y="202"/>
      <point x="1344" y="156"/>
      <point x="1235" y="156" type="curve" smooth="yes"/>
      <point x="1035" y="156"/>
      <point x="970" y="285"/>
      <point x="967" y="455" type="curve"/>
      <point x="1568" y="455" type="line" smooth="yes"/>
      <point x="1620" y="455"/>
      <point x="1647" y="486"/>
      <point x="1647" y="530" type="curve" smooth="yes"/>
      <point x="1643" y="819"/>
      <point x="1499" y="1029"/>
      <point x="1200" y="1029" type="curve" smooth="yes"/>
      <point x="1056" y="1029"/>
      <point x="942" y="968"/>
      <point x="864" y="871" type="curve"/>
      <point x="808" y="979"/>
      <point x="702" y="1027"/>
      <point x="550" y="1028" type="curve" smooth="yes"/>
      <point x="376" y="1028"/>
      <point x="223" y="991"/>
      <point x="154" y="898" type="curve" smooth="yes"/>
      <point x="142" y="882"/>
      <point x="135" y="865"/>
      <point x="135" y="845" type="curve" smooth="yes"/>
      <point x="135" y="805"/>
      <point x="167" y="771"/>
      <point x="207" y="771" type="curve" smooth="yes"/>
      <point x="219" y="771"/>
      <point x="230" y="773"/>
      <point x="240" y="778" type="curve" smooth="yes"/>
      <point x="318" y="812"/>
      <point x="399" y="846"/>
      <point x="527" y="846" type="curve" smooth="yes"/>
      <point x="643" y="846"/>
      <point x="723" y="807"/>
      <point x="723" y="675" type="curve" smooth="yes"/>
      <point x="723" y="612" type="line"/>
      <point x="696" y="613"/>
      <point x="652" y="614"/>
      <point x="626" y="614" type="curve" smooth="yes"/>
      <point x="279" y="614"/>
      <point x="60" y="522"/>
      <point x="60" y="275" type="curve" smooth="yes"/>
      <point x="60" y="85"/>
      <point x="207" y="-23"/>
    </contour>
    <contour>
      <point x="478" y="128" type="curve" smooth="yes"/>
      <point x="373" y="130"/>
      <point x="292" y="183"/>
      <point x="292" y="292" type="curve" smooth="yes"/>
      <point x="292" y="474"/>
      <point x="558" y="476"/>
      <point x="722" y="476" type="curve"/>
      <point x="722" y="401" type="line"/>
      <point x="717" y="224"/>
      <point x="616" y="130"/>
    </contour>
    <contour>
      <point x="967" y="591" type="line"/>
      <point x="978" y="752"/>
      <point x="1058" y="871"/>
      <point x="1202" y="871" type="curve" smooth="yes"/>
      <point x="1345" y="871"/>
      <point x="1417" y="764"/>
      <point x="1427" y="591" type="curve"/>
    </contour>
  </outline>
</glyph>
<glyph name="Lslash" format="1">
  <advance width="1178"/>
  <unicode hex="0141"/>
  <outline>
    <component base="L"/>
    <contour>
      <point x="73" y="588" type="curve" smooth="yes"/>
      <point x="735" y="812" type="line" smooth="yes"/>
      <point x="777" y="826"/>
      <point x="794" y="858"/>
      <point x="794" y="890" type="curve" smooth="yes"/>
      <point x="794" y="936"/>
      <point x="759" y="983"/>
      <point x="709" y="983" type="curve" smooth="yes"/>
      <point x="700" y="983"/>
      <point x="691" y="981"/>
      <point x="681" y="978" type="curve" smooth="yes"/>
      <point x="22" y="760" type="line" smooth="yes"/>
      <point x="-22" y="745"/>
      <point x="-41" y="711"/>
      <point x="-41" y="676" type="curve" smooth="yes"/>
      <point x="-41" y="630"/>
      <point x="-7" y="583"/>
      <point x="43" y="583" type="curve" smooth="yes"/>
      <point x="52" y="583"/>
      <point x="62" y="584"/>
    </contour>
  </outline>
</glyph>
<glyph name="Eng" format="1">
  <advance width="1568"/>
  <unicode hex="014A"/>
  <outline>
    <component base="N"/>
    <contour>
      <point x="649" y="-433" type="curve" smooth="yes"/>
      <point x="765" y="-462"/>
      <point x="870" y="-477"/>
      <point x="962" y="-477" type="curve" smooth="yes"/>
      <point x="1241" y="-477"/>
      <point x="1403" y="-332"/>
      <point x="1403" y="49" type="curve" smooth="yes"/>
      <point x="1403" y="350" type="line"/>
      <point x="1152" y="353" type="line"/>
      <point x="1152" y="-7" type="line" smooth="yes"/>
      <point x="1152" y="-206"/>
      <point x="1085" y="-288"/>
      <point x="927" y="-288" type="curve" smooth="yes"/>
      <point x="863" y="-288"/>
      <point x="784" y="-275"/>
      <point x="688" y="-250" type="curve" smooth="yes"/>
      <point x="677" y="-247"/>
      <point x="666" y="-246"/>
      <point x="656" y="-246" type="curve" smooth="yes"/>
      <point x="597" y="-246"/>
      <point x="560" y="-291"/>
      <point x="560" y="-338" type="curve" smooth="yes"/>
      <point x="560" y="-377"/>
      <point x="586" y="-418"/>
    </contour>
  </outline>
</glyph>
<glyph name="eng" format="1">
  <advance width="1204"/>
  <unicode hex="014B"/>
  <outline>
    <component base="n"/>
    <contour>
      <point x="391" y="-334" type="curve" smooth="yes"/>
      <point x="494" y="-364"/>
      <point x="590" y="-381"/>
      <point x="675" y="-381" type="curve" smooth="yes"/>
      <point x="915" y="-381"/>
      <point x="1070" y="-244"/>
      <point x="1070" y="130" type="curve" smooth="yes"/>
      <point x="1070" y="352" type="line"/>
      <point x="820" y="353" type="line"/>
      <point x="820" y="88" type="line" smooth="yes"/>
      <point x="820" y="-101"/>
      <point x="775" y="-192"/>
      <point x="630" y="-192" type="curve" smooth="yes"/>
      <point x="576" y="-192"/>
      <point x="508" y="-179"/>
      <point x="423" y="-154" type="curve" smooth="yes"/>
      <point x="413" y="-151"/>
      <point x="404" y="-150"/>
      <point x="395" y="-150" type="curve" smooth="yes"/>
      <point x="345" y="-150"/>
      <point x="311" y="-193"/>
      <point x="311" y="-239" type="curve" smooth="yes"/>
      <point x="311" y="-278"/>
      <point x="335" y="-318"/>
    </contour>
  </outline>
</glyph>
<glyph name="oe" format="1">
  <advance width="1862"/>
  <unicode hex="0153"/>
  <outline>
    <contour>
      <point x="1064" y="591" type="line"/>
      <point x="1075" y="751"/>
      <point x="1154" y="871"/>
      <point x="1299" y="871" type="curve" smooth="yes"/>
      <point x="1450" y="871"/>
      <point x="1527" y="763"/>
      <point x="1537" y="591" type="curve"/>
    </contour>
    <contour>
      <point x="585" y="141" type="curve" smooth="yes"/>
      <point x="404" y="141"/>
      <point x="331" y="312"/>
      <point x="331" y="501" type="curve" smooth="yes"/>
      <point x="331" y="692"/>
      <point x="405" y="861"/>
      <point x="585" y="861" type="curve" smooth="yes"/>
      <point x="767" y="861"/>
      <point x="833" y="684"/>
      <point x="833" y="492" type="curve"/>
      <point x="828" y="304"/>
      <point x="758" y="141"/>
    </contour>
    <contour>
      <point x="1299" y="-30" type="curve" smooth="yes"/>
      <point x="1493" y="-30"/>
      <point x="1711" y="45"/>
      <point x="1711" y="168" type="curve" smooth="yes"/>
      <point x="1711" y="207"/>
      <point x="1686" y="243"/>
      <point x="1649" y="243" type="curve" smooth="yes"/>
      <point x="1638" y="243"/>
      <point x="1627" y="240"/>
      <point x="1616" y="235" type="curve" smooth="yes"/>
      <point x="1543" y="201"/>
      <point x="1453" y="156"/>
      <point x="1348" y="156" type="curve" smooth="yes"/>
      <point x="1140" y="156"/>
      <point x="1070" y="284"/>
      <point x="1067" y="455" type="curve"/>
      <point x="1686" y="455" type="line" smooth="yes"/>
      <point x="1739" y="455"/>
      <point x="1768" y="485"/>
      <point x="1768" y="530" type="curve" smooth="yes"/>
      <point x="1763" y="821"/>
      <point x="1616" y="1033"/>
      <point x="1307" y="1033" type="curve" smooth="yes"/>
      <point x="1145" y="1033"/>
      <point x="1024" y="956"/>
      <point x="946" y="841" type="curve"/>
      <point x="871" y="953"/>
      <point x="752" y="1028"/>
      <point x="585" y="1028" type="curve" smooth="yes"/>
      <point x="240" y="1028"/>
      <point x="74" y="784"/>
      <point x="74" y="501" type="curve" smooth="yes"/>
      <point x="74" y="220"/>
      <point x="242" y="-23"/>
      <point x="585" y="-23" type="curve" smooth="yes"/>
      <point x="750" y="-23"/>
      <point x="867" y="53"/>
      <point x="943" y="168" type="curve"/>
      <point x="1017" y="46"/>
      <point x="1136" y="-30"/>
    </contour>
  </outline>
</glyph>
<glyph name="uni0237" format="1">
  <advance width="531"/>
  <unicode hex="0237"/>
  <outline>
    <contour>
      <point x="272" y="991" type="move" name="top"/>
    </contour>
    <contour>
      <point x="-9" y="-385" type="curve" smooth="yes"/>
      <point x="356" y="-385"/>
      <point x="398" y="-265"/>
      <point x="398" y="-10" type="curve" smooth="yes"/>
      <point x="398" y="852" type="line" smooth="yes"/>
      <point x="398" y="953"/>
      <point x="359" y="1001"/>
      <point x="272" y="1001" type="curve" smooth="yes"/>
      <point x="188" y="1001"/>
      <point x="142" y="949"/>
      <point x="142" y="848" type="curve" smooth="yes"/>
      <point x="142" y="-8" type="line" smooth="yes"/>
      <point x="142" y="-174"/>
      <point x="111" y="-196"/>
      <point x="-12" y="-198" type="curve" smooth="yes"/>
      <point x="-69" y="-198"/>
      <point x="-96" y="-242"/>
      <point x="-96" y="-288" type="curve" smooth="yes"/>
      <point x="-96" y="-336"/>
      <point x="-66" y="-385"/>
    </contour>
  </outline>
</glyph>
<glyph name="uni02BC" format="1">
  <advance width="600"/>
  <unicode hex="02BC"/>
  <outline>
    <contour>
      <point x="246" y="-170" type="move" name="_top.2"/>
    </contour>
    <contour>
      <point x="161" y="-106" type="curve" smooth="yes"/>
      <point x="251" y="-106" type="line" smooth="yes"/>
      <point x="280" y="-107"/>
      <point x="295" y="-95"/>
      <point x="307" y="-63" type="curve" smooth="yes"/>
      <point x="480" y="429" type="line" smooth="yes"/>
      <point x="485" y="443"/>
      <point x="488" y="482"/>
      <point x="446" y="485" type="curve" smooth="yes"/>
      <point x="294" y="485" type="line" smooth="yes"/>
      <point x="262" y="484"/>
      <point x="229" y="476"/>
      <point x="221" y="429" type="curve" smooth="yes"/>
      <point x="137" y="-63" type="line" smooth="yes"/>
      <point x="135" y="-75"/>
      <point x="133" y="-105"/>
    </contour>
  </outline>
</glyph>
<glyph name="ogonek" format="1">
  <advance width="569"/>
  <unicode hex="02DB"/>
  <outline>
    <contour>
      <point x="243" y="0" type="move" name="_ogonek"/>
    </contour>
    <contour>
      <point x="459" y="-437" type="curve"/>
      <point x="459" y="-321" type="line"/>
      <point x="377" y="-321"/>
      <point x="259" y="-295"/>
      <point x="259" y="-175" type="curve" smooth="yes"/>
      <point x="259" y="-131"/>
      <point x="275" y="-73"/>
      <point x="315" y="0" type="curve"/>
      <point x="195" y="0" type="line"/>
      <point x="108" y="-102"/>
      <point x="71" y="-197"/>
      <point x="71" y="-275" type="curve" smooth="yes"/>
      <point x="71" y="-396"/>
      <point x="160" y="-475"/>
      <point x="291" y="-475" type="curve" smooth="yes"/>
      <point x="342" y="-475"/>
      <point x="399" y="-463"/>
    </contour>
  </outline>
</glyph>
<glyph name="hungarumlaut" format="1">
  <advance width="569"/>
  <unicode hex="02DD"/>
  <outline>
    <contour>
      <point x="174" y="1040" type="move" name="_top"/>
    </contour>
    <contour>
      <point x="-18" y="1137" type="curve" smooth="yes"/>
      <point x="-2" y="1137"/>
      <point x="13" y="1142"/>
      <point x="30" y="1156" type="curve" smooth="yes"/>
      <point x="341" y="1410" type="line" smooth="yes"/>
      <point x="364" y="1429"/>
      <point x="374" y="1451"/>
      <point x="374" y="1476" type="curve" smooth="yes"/>
      <point x="374" y="1532"/>
      <point x="313" y="1588"/>
      <point x="256" y="1588" type="curve" smooth="yes"/>
      <point x="228" y="1588"/>
      <point x="201" y="1573"/>
      <point x="180" y="1540" type="curve"/>
      <point x="-61" y="1234" type="line" smooth="yes"/>
      <point x="-71" y="1221"/>
      <point x="-75" y="1207"/>
      <point x="-76" y="1193" type="curve" smooth="yes"/>
      <point x="-76" y="1161"/>
      <point x="-49" y="1137"/>
    </contour>
    <contour>
      <point x="371" y="1136" type="curve" smooth="yes"/>
      <point x="389" y="1136"/>
      <point x="402" y="1142"/>
      <point x="419" y="1156" type="curve" smooth="yes"/>
      <point x="731" y="1410" type="line"/>
      <point x="753" y="1430"/>
      <point x="763" y="1453"/>
      <point x="763" y="1475" type="curve" smooth="yes"/>
      <point x="763" y="1531"/>
      <point x="702" y="1588"/>
      <point x="645" y="1588" type="curve" smooth="yes"/>
      <point x="617" y="1588"/>
      <point x="590" y="1573"/>
      <point x="569" y="1541" type="curve"/>
      <point x="328" y="1234" type="line" smooth="yes"/>
      <point x="318" y="1221"/>
      <point x="314" y="1208"/>
      <point x="314" y="1195" type="curve" smooth="yes"/>
      <point x="314" y="1163"/>
      <point x="337" y="1136"/>
    </contour>
  </outline>
</glyph>
<glyph name="uni030F" format="1">
  <advance width="569"/>
  <unicode hex="030F"/>
  <outline>
    <contour>
      <point x="486" y="1076" type="move" name="_top"/>
    </contour>
    <contour>
      <point x="669" y="1199" type="curve" smooth="yes"/>
      <point x="699" y="1199"/>
      <point x="721" y="1223"/>
      <point x="723" y="1251" type="curve" smooth="yes"/>
      <point x="722" y="1270"/>
      <point x="716" y="1285"/>
      <point x="704" y="1302" type="curve" smooth="yes"/>
      <point x="480" y="1591" type="line" smooth="yes"/>
      <point x="453" y="1628"/>
      <point x="425" y="1651"/>
      <point x="392" y="1651" type="curve" smooth="yes"/>
      <point x="333" y="1651"/>
      <point x="273" y="1596"/>
      <point x="273" y="1538" type="curve" smooth="yes"/>
      <point x="273" y="1514"/>
      <point x="282" y="1493"/>
      <point x="303" y="1477" type="curve" smooth="yes"/>
      <point x="598" y="1234" type="line" smooth="yes"/>
      <point x="620" y="1214"/>
      <point x="648" y="1199"/>
    </contour>
    <contour>
      <point x="275" y="1199" type="curve" smooth="yes"/>
      <point x="305" y="1199"/>
      <point x="331" y="1224"/>
      <point x="331" y="1256" type="curve" smooth="yes"/>
      <point x="329" y="1273"/>
      <point x="323" y="1287"/>
      <point x="311" y="1303" type="curve" smooth="yes"/>
      <point x="85" y="1594" type="line" smooth="yes"/>
      <point x="59" y="1629"/>
      <point x="33" y="1651"/>
      <point x="-1" y="1651" type="curve" smooth="yes"/>
      <point x="-55" y="1651"/>
      <point x="-120" y="1600"/>
      <point x="-120" y="1539" type="curve" smooth="yes"/>
      <point x="-120" y="1516"/>
      <point x="-110" y="1494"/>
      <point x="-90" y="1477" type="curve" smooth="yes"/>
      <point x="214" y="1226" type="line" smooth="yes"/>
      <point x="232" y="1210"/>
      <point x="258" y="1199"/>
    </contour>
  </outline>
</glyph>
<glyph name="commaturnedabovecomb" format="1">
  <advance width="600"/>
  <unicode hex="0312"/>
  <outline>
    <contour>
      <point x="288" y="991" type="move" name="_top"/>
    </contour>
    <contour>
      <point x="205" y="1201" type="curve" smooth="yes"/>
      <point x="357" y="1201" type="line" smooth="yes"/>
      <point x="389" y="1202"/>
      <point x="422" y="1210"/>
      <point x="430" y="1257" type="curve" smooth="yes"/>
      <point x="514" y="1748" type="line" smooth="yes"/>
      <point x="516" y="1760"/>
      <point x="518" y="1790"/>
      <point x="490" y="1791" type="curve" smooth="yes"/>
      <point x="400" y="1791" type="line" smooth="yes"/>
      <point x="371" y="1792"/>
      <point x="356" y="1780"/>
      <point x="344" y="1748" type="curve" smooth="yes"/>
      <point x="171" y="1257" type="line" smooth="yes"/>
      <point x="166" y="1243"/>
      <point x="163" y="1204"/>
    </contour>
  </outline>
</glyph>
<glyph name="uni0312" format="1">
  <advance width="600"/>
  <unicode hex="0312"/>
  <outline>
    <contour>
      <point x="288" y="991" type="move" name="_top"/>
    </contour>
    <contour>
      <point x="205" y="1201" type="curve"/>
      <point x="357" y="1201" type="line"/>
      <point x="389" y="1202"/>
      <point x="422" y="1210"/>
      <point x="430" y="1257" type="curve" smooth="yes"/>
      <point x="514" y="1748" type="line" smooth="yes"/>
      <point x="515" y="1751"/>
      <point x="515" y="1755"/>
      <point x="515" y="1760" type="curve" smooth="yes"/>
      <point x="515" y="1773"/>
      <point x="511" y="1790"/>
      <point x="490" y="1791" type="curve" smooth="yes"/>
      <point x="400" y="1791" type="line" smooth="yes"/>
      <point x="397" y="1791" type="line" smooth="yes"/>
      <point x="370" y="1791"/>
      <point x="356" y="1779"/>
      <point x="344" y="1748" type="curve" smooth="yes"/>
      <point x="171" y="1257" type="line" smooth="yes"/>
      <point x="170" y="1253"/>
      <point x="168" y="1246"/>
      <point x="168" y="1239" type="curve" smooth="yes"/>
      <point x="168" y="1223"/>
      <point x="176" y="1203"/>
    </contour>
  </outline>
</glyph>
<glyph name="uni0326" format="1">
  <advance width="623"/>
  <unicode hex="0326"/>
  <outline>
    <contour>
      <point x="339" y="0" type="move" name="_bot"/>
    </contour>
    <contour>
      <point x="145" y="-646" type="curve" smooth="yes"/>
      <point x="235" y="-646" type="line" smooth="yes"/>
      <point x="264" y="-647"/>
      <point x="280" y="-635"/>
      <point x="291" y="-603" type="curve" smooth="yes"/>
      <point x="452" y="-160" type="line" smooth="yes"/>
      <point x="457" y="-146"/>
      <point x="460" y="-107"/>
      <point x="418" y="-104" type="curve" smooth="yes"/>
      <point x="270" y="-104" type="line" smooth="yes"/>
      <point x="238" y="-105"/>
      <point x="205" y="-113"/>
      <point x="197" y="-160" type="curve" smooth="yes"/>
      <point x="121" y="-603" type="line" smooth="yes"/>
      <point x="119" y="-615"/>
      <point x="117" y="-645"/>
    </contour>
  </outline>
</glyph>
<glyph name="uni0394" format="1">
  <advance width="1321"/>
  <unicode hex="0394"/>
  <outline>
    <contour>
      <point x="22" y="0" type="line"/>
      <point x="1299" y="0" type="line"/>
      <point x="809" y="1373" type="line"/>
      <point x="782" y="1435"/>
      <point x="719" y="1465"/>
      <point x="657" y="1465" type="curve" smooth="yes"/>
      <point x="593" y="1465"/>
      <point x="530" y="1433"/>
      <point x="510" y="1373" type="curve" smooth="yes"/>
    </contour>
    <contour>
      <point x="296" y="150" type="line"/>
      <point x="654" y="1214" type="line"/>
      <point x="1022" y="150" type="line"/>
    </contour>
  </outline>
</glyph>
<glyph name="Sigma" format="1">
  <advance width="1412"/>
  <unicode hex="03A3"/>
  <outline>
    <contour>
      <point x="350" y="-203" type="curve" smooth="yes"/>
      <point x="1162" y="-202" type="line" smooth="yes"/>
      <point x="1237" y="-202"/>
      <point x="1275" y="-136"/>
      <point x="1275" y="-71" type="curve" smooth="yes"/>
      <point x="1275" y="-6"/>
      <point x="1238" y="59"/>
      <point x="1162" y="59" type="curve" smooth="yes"/>
      <point x="430" y="59" type="line"/>
      <point x="874" y="471" type="line" smooth="yes"/>
      <point x="929" y="523"/>
      <point x="960" y="574"/>
      <point x="960" y="626" type="curve" smooth="yes"/>
      <point x="960" y="675"/>
      <point x="933" y="725"/>
      <point x="874" y="779" type="curve" smooth="yes"/>
      <point x="431" y="1185" type="line"/>
      <point x="1162" y="1185" type="line" smooth="yes"/>
      <point x="1238" y="1185"/>
      <point x="1275" y="1249"/>
      <point x="1275" y="1314" type="curve" smooth="yes"/>
      <point x="1275" y="1379"/>
      <point x="1237" y="1445"/>
      <point x="1162" y="1445" type="curve" smooth="yes"/>
      <point x="357" y="1445" type="line" smooth="yes"/>
      <point x="232" y="1445"/>
      <point x="144" y="1370"/>
      <point x="144" y="1268" type="curve" smooth="yes"/>
      <point x="144" y="1209"/>
      <point x="174" y="1141"/>
      <point x="242" y="1074" type="curve"/>
      <point x="713" y="623" type="line"/>
      <point x="242" y="159" type="line" smooth="yes"/>
      <point x="182" y="99"/>
      <point x="156" y="33"/>
      <point x="156" y="-26" type="curve" smooth="yes"/>
      <point x="156" y="-124"/>
      <point x="229" y="-203"/>
    </contour>
  </outline>
</glyph>
<glyph name="quoteleft" format="1">
  <advance width="622"/>
  <unicode hex="2018"/>
  <outline>
    <contour>
      <point x="142" y="874" type="curve" smooth="yes"/>
      <point x="302" y="874" type="line" smooth="yes"/>
      <point x="334" y="874"/>
      <point x="367" y="883"/>
      <point x="375" y="930" type="curve" smooth="yes"/>
      <point x="459" y="1409" type="line" smooth="yes"/>
      <point x="460" y="1412"/>
      <point x="460" y="1416"/>
      <point x="460" y="1421" type="curve" smooth="yes"/>
      <point x="460" y="1435"/>
      <point x="456" y="1452"/>
      <point x="435" y="1452" type="curve" smooth="yes"/>
      <point x="345" y="1452" type="line" smooth="yes"/>
      <point x="316" y="1452"/>
      <point x="300" y="1441"/>
      <point x="289" y="1409" type="curve"/>
      <point x="108" y="930" type="line" smooth="yes"/>
      <point x="107" y="926"/>
      <point x="105" y="919"/>
      <point x="105" y="912" type="curve" smooth="yes"/>
      <point x="105" y="895"/>
      <point x="113" y="874"/>
    </contour>
  </outline>
</glyph>
<glyph name="quotedblright" format="1">
  <advance width="1164"/>
  <unicode hex="201D"/>
  <outline>
    <contour>
      <point x="220" y="874" type="curve" smooth="yes"/>
      <point x="310" y="874" type="line"/>
      <point x="313" y="874" type="line" smooth="yes"/>
      <point x="340" y="874"/>
      <point x="355" y="886"/>
      <point x="366" y="917" type="curve" smooth="yes"/>
      <point x="547" y="1396" type="line" smooth="yes"/>
      <point x="548" y="1400"/>
      <point x="550" y="1407"/>
      <point x="550" y="1414" type="curve" smooth="yes"/>
      <point x="550" y="1431"/>
      <point x="542" y="1451"/>
      <point x="513" y="1452" type="curve"/>
      <point x="353" y="1452" type="line"/>
      <point x="321" y="1451"/>
      <point x="288" y="1443"/>
      <point x="280" y="1396" type="curve" smooth="yes"/>
      <point x="196" y="917" type="line" smooth="yes"/>
      <point x="195" y="914"/>
      <point x="195" y="910"/>
      <point x="195" y="905" type="curve" smooth="yes"/>
      <point x="195" y="892"/>
      <point x="199" y="875"/>
    </contour>
    <contour>
      <point x="658" y="874" type="curve" smooth="yes"/>
      <point x="748" y="874" type="line"/>
      <point x="751" y="874" type="line" smooth="yes"/>
      <point x="778" y="874"/>
      <point x="793" y="886"/>
      <point x="804" y="917" type="curve" smooth="yes"/>
      <point x="985" y="1396" type="line" smooth="yes"/>
      <point x="986" y="1400"/>
      <point x="988" y="1407"/>
      <point x="988" y="1414" type="curve" smooth="yes"/>
      <point x="988" y="1431"/>
      <point x="980" y="1451"/>
      <point x="951" y="1452" type="curve"/>
      <point x="791" y="1452" type="line"/>
      <point x="759" y="1451"/>
      <point x="726" y="1443"/>
      <point x="718" y="1396" type="curve" smooth="yes"/>
      <point x="634" y="917" type="line" smooth="yes"/>
      <point x="633" y="914"/>
      <point x="633" y="910"/>
      <point x="633" y="905" type="curve" smooth="yes"/>
      <point x="633" y="891"/>
      <point x="637" y="874"/>
    </contour>
  </outline>
</glyph>
<glyph name="perthousand" format="1">
  <advance width="2328"/>
  <unicode hex="2030"/>
  <outline>
    <contour>
      <point x="1932" y="-34" type="curve" smooth="yes"/>
      <point x="2158" y="-34"/>
      <point x="2270" y="148"/>
      <point x="2270" y="378" type="curve" smooth="yes"/>
      <point x="2270" y="607"/>
      <point x="2146" y="776"/>
      <point x="1943" y="776" type="curve" smooth="yes"/>
      <point x="1714" y="776"/>
      <point x="1603" y="594"/>
      <point x="1603" y="365" type="curve" smooth="yes"/>
      <point x="1603" y="127"/>
      <point x="1733" y="-34"/>
    </contour>
    <contour>
      <point x="1936" y="104" type="curve" smooth="yes"/>
      <point x="1814" y="104"/>
      <point x="1775" y="218"/>
      <point x="1775" y="371" type="curve" smooth="yes"/>
      <point x="1775" y="536"/>
      <point x="1821" y="639"/>
      <point x="1936" y="639" type="curve" smooth="yes"/>
      <point x="2058" y="639"/>
      <point x="2099" y="524"/>
      <point x="2099" y="371" type="curve" smooth="yes"/>
      <point x="2099" y="203"/>
      <point x="2051" y="104"/>
    </contour>
    <contour>
      <point x="1181" y="-34" type="curve" smooth="yes"/>
      <point x="1409" y="-34"/>
      <point x="1520" y="148"/>
      <point x="1520" y="378" type="curve" smooth="yes"/>
      <point x="1520" y="613"/>
      <point x="1391" y="776"/>
      <point x="1192" y="776" type="curve" smooth="yes"/>
      <point x="964" y="776"/>
      <point x="853" y="594"/>
      <point x="853" y="365" type="curve" smooth="yes"/>
      <point x="853" y="130"/>
      <point x="980" y="-34"/>
    </contour>
    <contour>
      <point x="1186" y="104" type="curve" smooth="yes"/>
      <point x="1062" y="104"/>
      <point x="1025" y="218"/>
      <point x="1025" y="371" type="curve" smooth="yes"/>
      <point x="1025" y="523"/>
      <point x="1064" y="639"/>
      <point x="1186" y="639" type="curve" smooth="yes"/>
      <point x="1306" y="639"/>
      <point x="1348" y="527"/>
      <point x="1348" y="371" type="curve" smooth="yes"/>
      <point x="1348" y="205"/>
      <point x="1302" y="104"/>
    </contour>
    <contour>
      <point x="362" y="629" type="curve" smooth="yes"/>
      <point x="591" y="629"/>
      <point x="701" y="811"/>
      <point x="701" y="1041" type="curve" smooth="yes"/>
      <point x="701" y="1270"/>
      <point x="574" y="1438"/>
      <point x="373" y="1438" type="curve" smooth="yes"/>
      <point x="144" y="1438"/>
      <point x="34" y="1256"/>
      <point x="34" y="1028" type="curve" smooth="yes"/>
      <point x="34" y="792"/>
      <point x="162" y="629"/>
    </contour>
    <contour>
      <point x="367" y="766" type="curve" smooth="yes"/>
      <point x="246" y="766"/>
      <point x="205" y="878"/>
      <point x="205" y="1034" type="curve" smooth="yes"/>
      <point x="205" y="1184"/>
      <point x="244" y="1301"/>
      <point x="367" y="1301" type="curve" smooth="yes"/>
      <point x="489" y="1301"/>
      <point x="529" y="1187"/>
      <point x="529" y="1034" type="curve" smooth="yes"/>
      <point x="529" y="865"/>
      <point x="480" y="766"/>
    </contour>
    <contour>
      <point x="385" y="-65" type="curve" smooth="yes"/>
      <point x="416" y="-65"/>
      <point x="439" y="-31"/>
      <point x="459" y="5" type="curve" smooth="yes"/>
      <point x="1195" y="1325" type="line" smooth="yes"/>
      <point x="1208" y="1349"/>
      <point x="1222" y="1377"/>
      <point x="1222" y="1399" type="curve" smooth="yes"/>
      <point x="1222" y="1437"/>
      <point x="1191" y="1466"/>
      <point x="1156" y="1466" type="curve" smooth="yes"/>
      <point x="1132" y="1466"/>
      <point x="1109" y="1454"/>
      <point x="1093" y="1423" type="curve" smooth="yes"/>
      <point x="339" y="68" type="line" smooth="yes"/>
      <point x="328" y="47"/>
      <point x="314" y="20"/>
      <point x="314" y="3" type="curve" smooth="yes"/>
      <point x="314" y="-32"/>
      <point x="348" y="-65"/>
    </contour>
  </outline>
</glyph>
<glyph name="uni2074" format="1">
  <advance width="757"/>
  <unicode hex="2074"/>
  <outline>
    <contour>
      <point x="507" y="602" type="curve" smooth="yes"/>
      <point x="544" y="602"/>
      <point x="574" y="634"/>
      <point x="574" y="684" type="curve" smooth="yes"/>
      <point x="574" y="782" type="line"/>
      <point x="642" y="782" type="line" smooth="yes"/>
      <point x="679" y="782"/>
      <point x="697" y="806"/>
      <point x="697" y="832" type="curve" smooth="yes"/>
      <point x="697" y="860"/>
      <point x="676" y="881"/>
      <point x="640" y="881" type="curve" smooth="yes"/>
      <point x="574" y="881" type="line"/>
      <point x="574" y="1303" type="line" smooth="yes"/>
      <point x="574" y="1392"/>
      <point x="538" y="1439"/>
      <point x="478" y="1439" type="curve" smooth="yes"/>
      <point x="422" y="1439"/>
      <point x="383" y="1417"/>
      <point x="346" y="1347" type="curve"/>
      <point x="54" y="886" type="line" smooth="yes"/>
      <point x="45" y="873"/>
      <point x="41" y="859"/>
      <point x="41" y="843" type="curve" smooth="yes"/>
      <point x="41" y="802"/>
      <point x="74" y="782"/>
      <point x="121" y="782" type="curve" smooth="yes"/>
      <point x="440" y="782" type="line"/>
      <point x="440" y="689" type="line" smooth="yes"/>
      <point x="440" y="634"/>
      <point x="469" y="602"/>
    </contour>
    <contour>
      <point x="175" y="878" type="line"/>
      <point x="440" y="1310" type="line"/>
      <point x="440" y="878" type="line"/>
    </contour>
  </outline>
</glyph>
<glyph name="Euro" format="1">
  <advance width="1440"/>
  <unicode hex="20AC"/>
  <outline>
    <component base="C" xOffset="72"/>
    <contour>
      <point x="72" y="499" type="curve" smooth="yes"/>
      <point x="968" y="499" type="line" smooth="yes"/>
      <point x="1007" y="499"/>
      <point x="1026" y="530"/>
      <point x="1026" y="561" type="curve" smooth="yes"/>
      <point x="1026" y="593"/>
      <point x="1006" y="626"/>
      <point x="965" y="626" type="curve" smooth="yes"/>
      <point x="72" y="626" type="line" smooth="yes"/>
      <point x="35" y="626"/>
      <point x="16" y="594"/>
      <point x="16" y="562" type="curve" smooth="yes"/>
      <point x="16" y="530"/>
      <point x="34" y="499"/>
    </contour>
    <contour>
      <point x="72" y="788" type="curve" smooth="yes"/>
      <point x="968" y="788" type="line" smooth="yes"/>
      <point x="1007" y="788"/>
      <point x="1026" y="819"/>
      <point x="1026" y="850" type="curve" smooth="yes"/>
      <point x="1026" y="882"/>
      <point x="1006" y="914"/>
      <point x="965" y="914" type="curve" smooth="yes"/>
      <point x="72" y="914" type="line" smooth="yes"/>
      <point x="35" y="914"/>
      <point x="16" y="882"/>
      <point x="16" y="850" type="curve" smooth="yes"/>
      <point x="16" y="819"/>
      <point x="34" y="788"/>
    </contour>
  </outline>
</glyph>
<glyph name="emptyset" format="1">
  <advance width="1745"/>
  <unicode hex="2205"/>
  <outline>
    <contour>
      <point x="668" y="300" type="curve"/>
      <point x="1210" y="1020" type="line"/>
      <point x="1289" y="939"/>
      <point x="1335" y="828"/>
      <point x="1335" y="706" type="curve" smooth="yes"/>
      <point x="1335" y="442"/>
      <point x="1124" y="256"/>
      <point x="874" y="256" type="curve" smooth="yes"/>
      <point x="799" y="256"/>
      <point x="729" y="272"/>
    </contour>
    <contour>
      <point x="562" y="368" type="line"/>
      <point x="467" y="450"/>
      <point x="411" y="571"/>
      <point x="411" y="706" type="curve" smooth="yes"/>
      <point x="411" y="963"/>
      <point x="612" y="1157"/>
      <point x="874" y="1157" type="curve" smooth="yes"/>
      <point x="962" y="1157"/>
      <point x="1041" y="1135"/>
      <point x="1109" y="1097" type="curve"/>
    </contour>
    <contour>
      <point x="369" y="90" type="curve" smooth="yes"/>
      <point x="369" y="60"/>
      <point x="394" y="25"/>
      <point x="430" y="25" type="curve" smooth="yes"/>
      <point x="462" y="25"/>
      <point x="488" y="60"/>
      <point x="511" y="91" type="curve" smooth="yes"/>
      <point x="590" y="196" type="line"/>
      <point x="676" y="153"/>
      <point x="773" y="129"/>
      <point x="874" y="129" type="curve" smooth="yes"/>
      <point x="1206" y="129"/>
      <point x="1478" y="389"/>
      <point x="1478" y="706" type="curve" smooth="yes"/>
      <point x="1478" y="876"/>
      <point x="1404" y="1023"/>
      <point x="1290" y="1127" type="curve"/>
      <point x="1363" y="1224" type="line"/>
      <point x="1380" y="1251"/>
      <point x="1404" y="1277"/>
      <point x="1404" y="1306" type="curve" smooth="yes"/>
      <point x="1404" y="1339"/>
      <point x="1380" y="1370"/>
      <point x="1345" y="1370" type="curve" smooth="yes"/>
      <point x="1325" y="1370"/>
      <point x="1306" y="1360"/>
      <point x="1290" y="1338" type="curve" smooth="yes"/>
      <point x="1188" y="1202" type="line"/>
      <point x="1095" y="1257"/>
      <point x="986" y="1288"/>
      <point x="874" y="1288" type="curve" smooth="yes"/>
      <point x="526" y="1288"/>
      <point x="267" y="1014"/>
      <point x="267" y="706" type="curve" smooth="yes"/>
      <point x="267" y="524"/>
      <point x="353" y="368"/>
      <point x="484" y="264" type="curve"/>
      <point x="410" y="165" type="line"/>
      <point x="391" y="143"/>
      <point x="369" y="112"/>
    </contour>
  </outline>
</glyph>
<glyph name="fl" format="1">
  <advance width="1241"/>
  <unicode hex="FB02"/>
  <outline>
    <contour>
      <point x="329" y="1" type="curve" smooth="yes"/>
      <point x="400" y="1"/>
      <point x="455" y="56"/>
      <point x="455" y="145" type="curve" smooth="yes"/>
      <point x="455" y="837" type="line"/>
      <point x="573" y="837" type="line" smooth="yes"/>
      <point x="637" y="837"/>
      <point x="670" y="874"/>
      <point x="670" y="920" type="curve" smooth="yes"/>
      <point x="670" y="967"/>
      <point x="637" y="1002"/>
      <point x="577" y="1002" type="curve" smooth="yes"/>
      <point x="455" y="1002" type="line"/>
      <point x="455" y="1042" type="line" smooth="yes"/>
      <point x="455" y="1237"/>
      <point x="477" y="1300"/>
      <point x="582" y="1300" type="curve" smooth="yes"/>
      <point x="803" y="1300" type="line"/>
      <point x="803" y="151" type="line" smooth="yes"/>
      <point x="803" y="49"/>
      <point x="858" y="1"/>
      <point x="928" y="1" type="curve" smooth="yes"/>
      <point x="1003" y="1"/>
      <point x="1055" y="62"/>
      <point x="1055" y="151" type="curve" smooth="yes"/>
      <point x="1055" y="1302" type="line" smooth="yes"/>
      <point x="1055" y="1395"/>
      <point x="996" y="1440"/>
      <point x="930" y="1440" type="curve" smooth="yes"/>
      <point x="873" y="1440"/>
      <point x="820" y="1407"/>
      <point x="807" y="1344" type="curve"/>
      <point x="786" y="1382"/>
      <point x="687" y="1456"/>
      <point x="495" y="1456" type="curve" smooth="yes"/>
      <point x="335" y="1454"/>
      <point x="204" y="1355"/>
      <point x="204" y="1085" type="curve" smooth="yes"/>
      <point x="204" y="1002" type="line"/>
      <point x="102" y="1002" type="line" smooth="yes"/>
      <point x="41" y="1002"/>
      <point x="12" y="963"/>
      <point x="12" y="920" type="curve" smooth="yes"/>
      <point x="12" y="872"/>
      <point x="45" y="837"/>
      <point x="106" y="837" type="curve" smooth="yes"/>
      <point x="204" y="837" type="line"/>
      <point x="204" y="140" type="line" smooth="yes"/>
      <point x="204" y="47"/>
      <point x="262" y="1"/>
    </contour>
  </outline>
</glyph>
